Coordinates
version=1
nRows=17
nColumns=36
inDegrees=yes

Units are S.I. units (second, meters, Newtons, ...)
If the header above contains a line with 'inDegrees', this indicates whether rotational values are in degrees (yes) or radians (no).

endheader
time	pelvis_tilt	pelvis_list	pelvis_rotation	pelvis_tx	pelvis_ty	pelvis_tz	hip_flexion_r	hip_adduction_r	hip_rotation_r	knee_angle_r	knee_angle_r_beta	ankle_angle_r	subtalar_angle_r	mtp_angle_r	hip_flexion_l	hip_adduction_l	hip_rotation_l	knee_angle_l	knee_angle_l_beta	ankle_angle_l	subtalar_angle_l	mtp_angle_l	lumbar_extension	lumbar_bending	lumbar_rotation	arm_flex_r	arm_add_r	arm_rot_r	elbow_flex_r	pro_sup_r	arm_flex_l	arm_add_l	arm_rot_l	elbow_flex_l	pro_sup_l
      3.94166670	    -11.99907445	     -0.68122071	     -2.93690941	      0.20563803	      0.71135242	     -0.05511681	     71.15225056	     -2.49215656	      0.36731855	     88.43899815	      1.54355170	     27.97920718	     -8.65655701	     -7.49999987	     68.61197485	    -10.59771409	      3.95349780	     95.03717055	      1.65871154	     31.00018571	     -2.52420251	     -7.49999987	    -30.83152010	      1.96360555	      3.31618002	     56.80035381	    -14.13162268	     18.89105444	     82.72206526	     80.38894339	     69.03776521	    -10.25810977	     19.59299794	     82.62915911	     70.45838344
      3.94583330	    -12.55535322	     -0.68438309	     -2.86081834	      0.20613531	      0.70940065	     -0.05415442	     71.77296955	     -2.61484577	      0.31108129	     88.65466686	      1.54731583	     28.57738514	     -8.11378424	     -7.49999987	     69.43766262	    -10.66578883	      4.03769926	     95.40694455	      1.66516531	     30.93051515	     -2.02365417	     -7.49999987	    -31.07151166	      1.93660849	      3.33164186	     58.09488089	    -14.48741746	     18.54656900	     84.21824448	     80.85478916	     70.46555840	     -9.65452617	     19.51464940	     83.73292864	     69.81720223
      3.95000000	    -13.06735803	     -0.59480888	     -2.78034035	      0.20500972	      0.70988995	     -0.05373673	     72.27926490	     -2.70183403	      0.34201827	     88.52943195	      1.54513007	     28.56376530	     -8.23354763	     -7.49999987	     70.06521060	    -10.60892505	      3.95477313	     95.41482402	      1.66530283	     30.49103046	     -2.15672730	     -7.49999987	    -31.34492917	      1.79493609	      3.13045145	     59.80313021	    -14.20755927	     18.22812454	     84.34833496	     80.04307966	     72.19736173	     -9.20442298	     19.27384169	     83.77638026	     69.25403490
      3.95416670	    -13.48451484	     -0.61097979	     -2.65639326	      0.20510100	      0.70611455	     -0.05399129	     72.81772226	     -2.88525956	      0.25576803	     88.70096198	      1.54812384	     29.01731015	     -7.96353338	     -7.49999987	     70.82069115	    -10.62453831	      4.03546786	     95.71925854	      1.67061622	     30.38677058	     -2.13256349	     -7.49999987	    -31.93448489	      1.75011780	      2.99459689	     61.35293212	    -14.69132556	     18.29091930	     86.10943600	     80.31603594	     74.06638375	     -9.28060072	     19.62937191	     84.83809597	     68.78655615
      3.95833330	    -14.08292947	     -0.58357516	     -2.65181919	      0.20405825	      0.70412625	     -0.05293917	     73.53560102	     -2.90133726	      0.12518287	     88.66858272	      1.54755871	     29.13637149	     -8.03803198	     -7.49999987	     71.66984081	    -10.69250627	      3.84005151	     95.82734668	      1.67250271	     30.20700183	     -2.45714049	     -7.49999987	    -32.19394868	      1.59424030	      2.90453411	     63.08151373	    -14.56639051	     18.07716969	     86.57231573	     80.12013342	     75.81424098	     -9.05254174	     19.47252629	     85.15996813	     68.54859151
      3.96250000	    -14.43785815	     -0.57035413	     -2.59911852	      0.20465371	      0.70181135	     -0.05270392	     74.04324297	     -3.02495687	     -0.05002500	     88.94452566	      1.55237482	     29.64359566	     -7.69318880	     -7.49999987	     72.32756077	    -10.80701927	      3.91005890	     96.03948658	      1.67620525	     30.20402685	     -2.38150282	     -7.49999987	    -32.97615507	      1.46486090	      2.74677303	     64.77974801	    -15.02356049	     18.15061394	     88.54321990	     80.74533884	     77.99527411	     -9.46221818	     20.16963262	     86.50962636	     68.19671497
      3.96666670	    -15.02682730	     -0.52325736	     -2.70235657	      0.20395244	      0.69881642	     -0.05258136	     74.88681873	     -2.97102274	     -0.10781277	     89.15749035	      1.55609176	     29.73436223	     -7.75060499	     -7.49999987	     73.21341110	    -10.96464671	      3.83161042	     96.39995934	      1.68249669	     30.10109688	     -2.53547027	     -7.49999987	    -33.21351387	      1.33255333	      2.66900610	     66.69625570	    -14.88993385	     17.90242548	     89.03191831	     80.43156164	     79.87183299	     -9.27280472	     20.03426692	     86.83547647	     67.90043262
      3.97083330	    -15.45509753	     -0.54701051	     -2.74005502	      0.20462004	      0.69547465	     -0.05183823	     75.50989305	     -2.97516701	     -0.28990059	     89.44882431	      1.56117650	     30.07058448	     -7.55408129	     -7.49999987	     73.95105088	    -11.23668973	      3.81345277	     96.89237470	      1.69109096	     30.27392318	     -2.19721256	     -7.49999987	    -33.79230147	      1.23639840	      2.68311420	     68.57437880	    -15.40604367	     18.05385812	     90.73183096	     81.34026759	     81.70800356	     -9.43858574	     20.48888425	     88.10944057	     67.59289497
      3.97500000	    -16.01242190	     -0.54661566	     -2.81696190	      0.20364996	      0.69129695	     -0.05180560	     76.42019615	     -2.96294547	     -0.37519206	     89.84846149	      1.56815148	     30.27854201	     -7.36129791	     -7.49999987	     74.94815877	    -11.48623626	      3.82383852	     97.51761001	      1.70200337	     30.56075916	     -1.72196415	     -7.49999987	    -34.04565744	      1.15374262	      2.66594578	     70.41051435	    -15.66724344	     18.00310013	     91.68856207	     81.72848868	     83.45584812	     -9.44127754	     20.55441330	     88.90570949	     67.25833403
      3.97916670	    -16.62827013	     -0.57314398	     -2.88524000	      0.20410584	      0.68949609	     -0.05148559	     77.29866032	     -2.90240093	     -0.44305191	     90.15915108	      1.57357404	     30.25082764	     -7.41061941	     -7.49999987	     75.88468774	    -11.67102474	      3.85544946	     97.97557168	      1.70999631	     30.53312564	     -1.51984172	     -7.49999987	    -34.15462168	      0.98278371	      2.60268260	     72.15255189	    -15.55976355	     17.81460215	     92.06823458	     81.83518994	     84.98655883	     -8.98111697	     20.38678218	     89.36599424	     67.18986114
      3.98333330	    -17.16183964	     -0.59653351	     -2.90568945	      0.20588222	      0.68602864	     -0.05103857	     78.05349924	     -2.91354749	     -0.51675432	     90.53370491	      1.58011123	     30.27005993	     -7.42433537	     -7.49999987	     76.63257942	    -11.94876468	      3.93257615	     98.30320917	      1.71571467	     30.99085867	     -0.54227292	     -7.49999987	    -34.35053207	      0.90555494	      2.55686393	     73.77867039	    -15.95965123	     18.12445874	     93.19025103	     82.53077989	     86.33022214	     -8.72092557	     20.31253243	     90.39792102	     67.10516390
      3.98750000	    -17.68458479	     -0.69385142	     -2.93045454	      0.20548286	      0.68520340	     -0.04962054	     78.64209963	     -2.79569250	     -0.64199183	     90.63250653	      1.58183565	     30.36806128	     -7.48558318	     -7.49999987	     77.32126359	    -12.25079208	      4.00164536	     98.53726732	      1.71979975	     31.00432316	     -0.11289673	     -7.49999987	    -34.59273917	      0.83815306	      2.56163393	     75.42321076	    -16.19384778	     18.14498137	     93.72657962	     82.67914105	     87.80911561	     -8.44045695	     20.31591104	     91.08049332	     66.87215887
      3.99166670	    -18.21070884	     -0.72404571	     -2.93809666	      0.20273110	      0.68178459	     -0.04782549	     79.41176646	     -2.63330151	     -0.68093186	     90.81413661	      1.58500569	     30.58707379	     -7.63909022	     -7.49999987	     78.18417419	    -12.58404679	      4.01929684	     98.69947085	      1.72263074	     30.93637579	      0.38888114	     -7.49999987	    -34.84703500	      0.63965488	      2.65838605	     76.98326455	    -16.53944831	     17.42830812	     94.33493176	     88.76780763	     89.49816419	     -8.04266789	     20.28295100	     91.35423226	     66.99564943
      3.99583330	    -18.84549446	     -0.76397837	     -2.82319662	      0.20640463	      0.67930724	     -0.04843035	     80.17618700	     -2.71045223	     -0.76843395	     91.06731782	      1.58942454	     30.77268492	     -7.62246384	     -7.49999987	     79.06416851	    -12.76233942	      4.13865784	     98.94691588	      1.72694947	     30.74454672	      0.59817379	     -7.49999987	    -34.89297972	      0.66565633	      2.51705402	     78.27153833	    -16.60319725	     17.19060695	     94.80011745	     88.82665021	     90.71321123	     -7.71335724	     20.07127757	     91.99064746	     67.03708841
      4.00000000	    -19.45996100	     -0.80318590	     -2.79567090	      0.20539102	      0.67620756	     -0.04763795	     80.98500679	     -2.60359750	     -0.79302538	     91.35211264	      1.59439514	     31.02946818	     -7.67154372	     -7.49999987	     80.00637267	    -13.02394140	      4.10278123	     99.28195429	      1.73279699	     30.78166921	      0.98059841	     -7.49999987	    -35.06317769	      0.67958520	      2.53312319	     79.74244655	    -16.98751062	     17.08390001	     95.96555742	     88.19511556	     91.97580733	     -7.57518800	     19.97539283	     93.07429322	     67.01213614
      4.00416670	    -20.12560623	     -0.83203317	     -2.60055299	      0.20406015	      0.67151302	     -0.04501678	     82.05713305	     -2.63038714	     -0.86769462	     91.82192384	      1.60259490	     31.21170879	     -7.76943551	     -7.49999987	     81.15605069	    -13.13617906	      4.25905851	     99.68279783	      1.73979303	     30.99392484	      1.26896711	     -7.49999987	    -35.17762376	      0.67327588	      2.50919762	     81.29177200	    -17.35648822	     16.80678357	     96.95687932	     88.39032040	     93.49126576	     -7.56090753	     20.00473262	     93.89007124	     67.29108467
      4.00833330	    -20.74301953	     -0.87207163	     -2.46762635	      0.20544221	      0.67111375	     -0.04582652	     82.79607103	     -2.60994321	     -0.87913982	     92.06455000	      1.60682952	     31.31146500	     -7.93406029	     -7.49999987	     82.07442337	    -13.27612724	      4.33117581	     99.89307655	      1.74346309	     30.81991051	      1.53194763	     -7.49999987	    -35.31744211	      0.75471934	      2.52357252	     82.89569913	    -17.59375465	     16.44581173	     97.26391084	     87.68891266	     95.00111833	     -7.47421630	     19.89641979	     94.30400713	     67.22679707
